<svg width="32" height="32" viewBox="0 0 32 32" fill="none" xmlns="http://www.w3.org/2000/svg">
<path d="M31 16C31 24.2843 24.2843 31 16 31C7.71573 31 1 24.2843 1 16C1 7.71573 7.71573 1 16 1C24.2843 1 31 7.71573 31 16Z" stroke="white" stroke-width="2"/>
<path fill-rule="evenodd" clip-rule="evenodd" d="M12.6337 7H19.3941C22.5051 7 25.0278 9.51887 25.0278 12.625V19.375C25.0278 22.4811 22.5051 25 19.3941 25H12.6337C9.52272 25 6.99994 22.4811 6.99994 19.375V12.625C6.99994 9.51887 9.52272 7 12.6337 7ZM19.3941 23.3125C21.5687 23.3125 23.3377 21.5463 23.3377 19.375V12.625C23.3377 10.4537 21.5687 8.6875 19.3941 8.6875H12.6337C10.459 8.6875 8.69005 10.4537 8.69005 12.625V19.375C8.69005 21.5463 10.459 23.3125 12.6337 23.3125H19.3941Z" fill="white"/>
<path fill-rule="evenodd" clip-rule="evenodd" d="M11.3851 16C11.3851 13.4477 13.4576 11.3784 16.0139 11.3784C18.5701 11.3784 20.6426 13.4477 20.6426 16C20.6426 18.5523 18.5701 20.6217 16.0139 20.6217C13.4576 20.6217 11.3851 18.5523 11.3851 16ZM13.1209 16C13.1209 17.5922 14.4192 18.8886 16.0139 18.8886C17.6085 18.8886 18.9068 17.5922 18.9068 16C18.9068 14.4067 17.6085 13.1115 16.0139 13.1115C14.4192 13.1115 13.1209 14.4067 13.1209 16Z" fill="white"/>
<path d="M20.8863 12.3513C21.2899 12.3513 21.6171 12.0246 21.6171 11.6216C21.6171 11.2186 21.2899 10.8918 20.8863 10.8918C20.4826 10.8918 20.1554 11.2186 20.1554 11.6216C20.1554 12.0246 20.4826 12.3513 20.8863 12.3513Z" fill="white"/>
</svg>
